<svg xmlns="http://www.w3.org/2000/svg" xmlns:xlink="http://www.w3.org/1999/xlink" contentStyleType="text/css" data-diagram-type="ACTIVITY" height="1029px" preserveAspectRatio="none" style="width:567px;height:1029px;background:#FFFFFF;" version="1.1" viewBox="0 0 567 1029" width="567px" zoomAndPan="magnify"><defs/><g><ellipse cx="340.3318" cy="20" fill="#222222" rx="10" ry="10" style="stroke:#222222;stroke-width:1;"/><rect fill="#F1F1F1" height="33.9688" rx="12.5" ry="12.5" style="stroke:#181818;stroke-width:0.5;" width="162.0254" x="259.3191" y="50"/><text fill="#000000" font-family="sans-serif" font-size="12" lengthAdjust="spacing" textLength="142.0254" x="269.3191" y="71.1387">Importar dados da rede</text><rect fill="#F1F1F1" height="33.9688" rx="12.5" ry="12.5" style="stroke:#181818;stroke-width:0.5;" width="250.5664" x="215.0486" y="103.9688"/><text fill="#000000" font-family="sans-serif" font-size="12" lengthAdjust="spacing" textLength="230.5664" x="225.0486" y="125.1074">Construir grafo com v&#233;rtices e arestas</text><rect fill="#F1F1F1" height="33.9688" rx="12.5" ry="12.5" style="stroke:#181818;stroke-width:0.5;" width="218.2637" x="231.2" y="157.9375"/><text fill="#000000" font-family="sans-serif" font-size="12" lengthAdjust="spacing" textLength="198.2637" x="241.2" y="179.0762">Filtrar arestas com status inativo</text><polygon fill="#F1F1F1" points="292.9131,211.9063,387.7505,211.9063,399.7505,223.9063,387.7505,235.9063,292.9131,235.9063,280.9131,223.9063,292.9131,211.9063" style="stroke:#181818;stroke-width:0.5;"/><text fill="#000000" font-family="sans-serif" font-size="11" lengthAdjust="spacing" textLength="94.8374" x="292.9131" y="227.7144">Rede conectada?</text><text fill="#000000" font-family="sans-serif" font-size="11" lengthAdjust="spacing" textLength="19.5024" x="261.4106" y="221.312">sim</text><rect fill="#F1F1F1" height="33.9688" rx="12.5" ry="12.5" style="stroke:#181818;stroke-width:0.5;" width="248.9082" x="74.9497" y="245.9063"/><text fill="#000000" font-family="sans-serif" font-size="12" lengthAdjust="spacing" textLength="228.9082" x="84.9497" y="267.0449">Selecionar algoritmo de fluxo m&#225;ximo</text><rect fill="#F1F1F1" height="33.9688" rx="12.5" ry="12.5" style="stroke:#181818;stroke-width:0.5;" width="157.8477" x="120.48" y="299.875"/><text fill="#000000" font-family="sans-serif" font-size="12" lengthAdjust="spacing" textLength="137.8477" x="130.48" y="321.0137">Construir rede residual</text><rect fill="#F1F1F1" height="33.9688" rx="12.5" ry="12.5" style="stroke:#181818;stroke-width:0.5;" width="211.2031" x="93.8022" y="397.8438"/><text fill="#000000" font-family="sans-serif" font-size="12" lengthAdjust="spacing" textLength="191.2031" x="103.8022" y="418.9824">Encontrar caminho aumentante</text><rect fill="#F1F1F1" height="47.9375" rx="12.5" ry="12.5" style="stroke:#181818;stroke-width:0.5;" width="131.5742" x="133.6167" y="452.3281"/><text fill="#000000" font-family="sans-serif" font-size="12" lengthAdjust="spacing" textLength="111.5742" x="143.6167" y="473.4668">Atualizar fluxos na</text><text fill="#000000" font-family="sans-serif" font-size="12" lengthAdjust="spacing" textLength="78.9434" x="143.6167" y="487.4355">rede residual</text><polygon fill="#F1F1F1" points="199.4038,353.8438,211.4038,365.8438,199.4038,377.8438,187.4038,365.8438,199.4038,353.8438" style="stroke:#181818;stroke-width:0.5;"/><polygon fill="#F1F1F1" points="142.3816,520.2656,256.426,520.2656,268.426,532.2656,256.426,544.2656,142.3816,544.2656,130.3816,532.2656,142.3816,520.2656" style="stroke:#181818;stroke-width:0.5;"/><text fill="#000000" font-family="sans-serif" font-size="11" lengthAdjust="spacing" textLength="114.0444" x="142.3816" y="536.0737">Caminho dispon&#237;vel?</text><rect fill="#F1F1F1" height="33.9688" rx="12.5" ry="12.5" style="stroke:#181818;stroke-width:0.5;" width="122.3691" x="138.2192" y="564.2656"/><text fill="#000000" font-family="sans-serif" font-size="12" lengthAdjust="spacing" textLength="102.3691" x="148.2192" y="585.4043">Salvar fluxo total</text><rect fill="#F1F1F1" height="33.9688" rx="12.5" ry="12.5" style="stroke:#181818;stroke-width:0.5;" width="215.0645" x="91.8716" y="618.2344"/><text fill="#000000" font-family="sans-serif" font-size="12" lengthAdjust="spacing" textLength="195.0645" x="101.8716" y="639.373">Simular falhas nos tubos cr&#237;ticos</text><polygon fill="#F1F1F1" points="151.6951,672.2031,247.1125,672.2031,259.1125,684.2031,247.1125,696.2031,151.6951,696.2031,139.6951,684.2031,151.6951,672.2031" style="stroke:#181818;stroke-width:0.5;"/><text fill="#000000" font-family="sans-serif" font-size="11" lengthAdjust="spacing" textLength="95.4175" x="151.6951" y="688.0112">Existe nova rota?</text><text fill="#000000" font-family="sans-serif" font-size="11" lengthAdjust="spacing" textLength="19.5024" x="120.1926" y="681.6089">sim</text><text fill="#000000" font-family="sans-serif" font-size="11" lengthAdjust="spacing" textLength="20.4424" x="259.1125" y="681.6089">n&#227;o</text><rect fill="#F1F1F1" height="47.9375" rx="12.5" ry="12.5" style="stroke:#181818;stroke-width:0.5;" width="136.6602" x="34.9326" y="706.2031"/><text fill="#000000" font-family="sans-serif" font-size="12" lengthAdjust="spacing" textLength="116.6602" x="44.9326" y="727.3418">Gerar rede residual</text><text fill="#000000" font-family="sans-serif" font-size="12" lengthAdjust="spacing" textLength="71.6133" x="44.9326" y="741.3105">(ap&#243;s falha)</text><rect fill="#F1F1F1" height="33.9688" rx="12.5" ry="12.5" style="stroke:#181818;stroke-width:0.5;" width="168.5762" x="18.9746" y="774.1406"/><text fill="#000000" font-family="sans-serif" font-size="12" lengthAdjust="spacing" textLength="148.5762" x="28.9746" y="795.2793">Recalcular fluxo m&#225;ximo</text><rect fill="#F1F1F1" height="33.9688" rx="12.5" ry="12.5" style="stroke:#181818;stroke-width:0.5;" width="184.5254" x="11" y="828.1094"/><text fill="#000000" font-family="sans-serif" font-size="12" lengthAdjust="spacing" textLength="164.5254" x="21" y="849.248">Comparar impacto da falha</text><rect fill="#F1F1F1" height="33.9688" rx="12.5" ry="12.5" style="stroke:#181818;stroke-width:0.5;" width="160.0391" x="215.5254" y="706.2031"/><text fill="#000000" font-family="sans-serif" font-size="12" lengthAdjust="spacing" textLength="140.0391" x="225.5254" y="727.3418">Notificar ruptura cr&#237;tica</text><polygon fill="#F1F1F1" points="199.4038,868.0781,211.4038,880.0781,199.4038,892.0781,187.4038,880.0781,199.4038,868.0781" style="stroke:#181818;stroke-width:0.5;"/><rect fill="#F1F1F1" height="33.9688" rx="12.5" ry="12.5" style="stroke:#181818;stroke-width:0.5;" width="144.5996" x="127.104" y="912.0781"/><text fill="#000000" font-family="sans-serif" font-size="12" lengthAdjust="spacing" textLength="124.5996" x="137.104" y="933.2168">Visualizar resultados</text><rect fill="#F1F1F1" height="33.9688" rx="12.5" ry="12.5" style="stroke:#181818;stroke-width:0.5;" width="151.3906" x="405.5645" y="245.9063"/><text fill="#000000" font-family="sans-serif" font-size="12" lengthAdjust="spacing" textLength="131.3906" x="415.5645" y="267.0449">Erro de conectividade</text><polygon fill="#F1F1F1" points="340.3318,952.0469,352.3318,964.0469,340.3318,976.0469,328.3318,964.0469,340.3318,952.0469" style="stroke:#181818;stroke-width:0.5;"/><ellipse cx="340.3318" cy="1007.0469" fill="none" rx="11" ry="11" style="stroke:#222222;stroke-width:1;"/><ellipse cx="340.3318" cy="1007.0469" fill="#222222" rx="6" ry="6" style="stroke:#222222;stroke-width:1;"/><line style="stroke:#181818;stroke-width:1;" x1="340.3318" x2="340.3318" y1="30" y2="50"/><polygon fill="#181818" points="336.3318,40,340.3318,50,344.3318,40,340.3318,44" style="stroke:#181818;stroke-width:1;"/><line style="stroke:#181818;stroke-width:1;" x1="340.3318" x2="340.3318" y1="83.9688" y2="103.9688"/><polygon fill="#181818" points="336.3318,93.9688,340.3318,103.9688,344.3318,93.9688,340.3318,97.9688" style="stroke:#181818;stroke-width:1;"/><line style="stroke:#181818;stroke-width:1;" x1="340.3318" x2="340.3318" y1="137.9375" y2="157.9375"/><polygon fill="#181818" points="336.3318,147.9375,340.3318,157.9375,344.3318,147.9375,340.3318,151.9375" style="stroke:#181818;stroke-width:1;"/><line style="stroke:#181818;stroke-width:1;" x1="199.4038" x2="199.4038" y1="279.875" y2="299.875"/><polygon fill="#181818" points="195.4038,289.875,199.4038,299.875,203.4038,289.875,199.4038,293.875" style="stroke:#181818;stroke-width:1;"/><line style="stroke:#181818;stroke-width:1;" x1="199.4038" x2="199.4038" y1="431.8125" y2="452.3281"/><polygon fill="#181818" points="195.4038,442.3281,199.4038,452.3281,203.4038,442.3281,199.4038,446.3281" style="stroke:#181818;stroke-width:1;"/><line style="stroke:#181818;stroke-width:1;" x1="199.4038" x2="199.4038" y1="377.8438" y2="397.8438"/><polygon fill="#181818" points="195.4038,387.8438,199.4038,397.8438,203.4038,387.8438,199.4038,391.8438" style="stroke:#181818;stroke-width:1;"/><line style="stroke:#181818;stroke-width:1;" x1="268.426" x2="317.0054" y1="532.2656" y2="532.2656"/><polygon fill="#181818" points="313.0054,451.8125,317.0054,441.8125,321.0054,451.8125,317.0054,447.8125" style="stroke:#181818;stroke-width:1;"/><line style="stroke:#181818;stroke-width:1;" x1="317.0054" x2="317.0054" y1="365.8438" y2="532.2656"/><line style="stroke:#181818;stroke-width:1;" x1="317.0054" x2="211.4038" y1="365.8438" y2="365.8438"/><polygon fill="#181818" points="221.4038,361.8438,211.4038,365.8438,221.4038,369.8438,217.4038,365.8438" style="stroke:#181818;stroke-width:1;"/><line style="stroke:#181818;stroke-width:1;" x1="199.4038" x2="199.4038" y1="500.2656" y2="520.2656"/><polygon fill="#181818" points="195.4038,510.2656,199.4038,520.2656,203.4038,510.2656,199.4038,514.2656" style="stroke:#181818;stroke-width:1;"/><line style="stroke:#181818;stroke-width:1;" x1="199.4038" x2="199.4038" y1="333.8438" y2="353.8438"/><polygon fill="#181818" points="195.4038,343.8438,199.4038,353.8438,203.4038,343.8438,199.4038,347.8438" style="stroke:#181818;stroke-width:1;"/><line style="stroke:#181818;stroke-width:1;" x1="199.4038" x2="199.4038" y1="544.2656" y2="564.2656"/><polygon fill="#181818" points="195.4038,554.2656,199.4038,564.2656,203.4038,554.2656,199.4038,558.2656" style="stroke:#181818;stroke-width:1;"/><line style="stroke:#181818;stroke-width:1;" x1="199.4038" x2="199.4038" y1="598.2344" y2="618.2344"/><polygon fill="#181818" points="195.4038,608.2344,199.4038,618.2344,203.4038,608.2344,199.4038,612.2344" style="stroke:#181818;stroke-width:1;"/><line style="stroke:#181818;stroke-width:1;" x1="103.2627" x2="103.2627" y1="754.1406" y2="774.1406"/><polygon fill="#181818" points="99.2627,764.1406,103.2627,774.1406,107.2627,764.1406,103.2627,768.1406" style="stroke:#181818;stroke-width:1;"/><line style="stroke:#181818;stroke-width:1;" x1="103.2627" x2="103.2627" y1="808.1094" y2="828.1094"/><polygon fill="#181818" points="99.2627,818.1094,103.2627,828.1094,107.2627,818.1094,103.2627,822.1094" style="stroke:#181818;stroke-width:1;"/><line style="stroke:#181818;stroke-width:1;" x1="139.6951" x2="103.2627" y1="684.2031" y2="684.2031"/><line style="stroke:#181818;stroke-width:1;" x1="103.2627" x2="103.2627" y1="684.2031" y2="706.2031"/><polygon fill="#181818" points="99.2627,696.2031,103.2627,706.2031,107.2627,696.2031,103.2627,700.2031" style="stroke:#181818;stroke-width:1;"/><line style="stroke:#181818;stroke-width:1;" x1="259.1125" x2="295.5449" y1="684.2031" y2="684.2031"/><line style="stroke:#181818;stroke-width:1;" x1="295.5449" x2="295.5449" y1="684.2031" y2="706.2031"/><polygon fill="#181818" points="291.5449,696.2031,295.5449,706.2031,299.5449,696.2031,295.5449,700.2031" style="stroke:#181818;stroke-width:1;"/><line style="stroke:#181818;stroke-width:1;" x1="103.2627" x2="103.2627" y1="862.0781" y2="880.0781"/><line style="stroke:#181818;stroke-width:1;" x1="103.2627" x2="187.4038" y1="880.0781" y2="880.0781"/><polygon fill="#181818" points="177.4038,876.0781,187.4038,880.0781,177.4038,884.0781,181.4038,880.0781" style="stroke:#181818;stroke-width:1;"/><line style="stroke:#181818;stroke-width:1;" x1="295.5449" x2="295.5449" y1="740.1719" y2="880.0781"/><line style="stroke:#181818;stroke-width:1;" x1="295.5449" x2="211.4038" y1="880.0781" y2="880.0781"/><polygon fill="#181818" points="221.4038,876.0781,211.4038,880.0781,221.4038,884.0781,217.4038,880.0781" style="stroke:#181818;stroke-width:1;"/><line style="stroke:#181818;stroke-width:1;" x1="199.4038" x2="199.4038" y1="652.2031" y2="672.2031"/><polygon fill="#181818" points="195.4038,662.2031,199.4038,672.2031,203.4038,662.2031,199.4038,666.2031" style="stroke:#181818;stroke-width:1;"/><line style="stroke:#181818;stroke-width:1;" x1="199.4038" x2="199.4038" y1="892.0781" y2="912.0781"/><polygon fill="#181818" points="195.4038,902.0781,199.4038,912.0781,203.4038,902.0781,199.4038,906.0781" style="stroke:#181818;stroke-width:1;"/><line style="stroke:#181818;stroke-width:1;" x1="280.9131" x2="199.4038" y1="223.9063" y2="223.9063"/><line style="stroke:#181818;stroke-width:1;" x1="199.4038" x2="199.4038" y1="223.9063" y2="245.9063"/><polygon fill="#181818" points="195.4038,235.9063,199.4038,245.9063,203.4038,235.9063,199.4038,239.9063" style="stroke:#181818;stroke-width:1;"/><line style="stroke:#181818;stroke-width:1;" x1="399.7505" x2="481.2598" y1="223.9063" y2="223.9063"/><line style="stroke:#181818;stroke-width:1;" x1="481.2598" x2="481.2598" y1="223.9063" y2="245.9063"/><polygon fill="#181818" points="477.2598,235.9063,481.2598,245.9063,485.2598,235.9063,481.2598,239.9063" style="stroke:#181818;stroke-width:1;"/><line style="stroke:#181818;stroke-width:1;" x1="199.4038" x2="199.4038" y1="946.0469" y2="964.0469"/><line style="stroke:#181818;stroke-width:1;" x1="199.4038" x2="328.3318" y1="964.0469" y2="964.0469"/><polygon fill="#181818" points="318.3318,960.0469,328.3318,964.0469,318.3318,968.0469,322.3318,964.0469" style="stroke:#181818;stroke-width:1;"/><line style="stroke:#181818;stroke-width:1;" x1="481.2598" x2="481.2598" y1="279.875" y2="964.0469"/><line style="stroke:#181818;stroke-width:1;" x1="481.2598" x2="352.3318" y1="964.0469" y2="964.0469"/><polygon fill="#181818" points="362.3318,960.0469,352.3318,964.0469,362.3318,968.0469,358.3318,964.0469" style="stroke:#181818;stroke-width:1;"/><line style="stroke:#181818;stroke-width:1;" x1="340.3318" x2="340.3318" y1="191.9063" y2="211.9063"/><polygon fill="#181818" points="336.3318,201.9063,340.3318,211.9063,344.3318,201.9063,340.3318,205.9063" style="stroke:#181818;stroke-width:1;"/><line style="stroke:#181818;stroke-width:1;" x1="340.3318" x2="340.3318" y1="976.0469" y2="996.0469"/><polygon fill="#181818" points="336.3318,986.0469,340.3318,996.0469,344.3318,986.0469,340.3318,990.0469" style="stroke:#181818;stroke-width:1;"/><!--SRC=[PP8nRkGm34LxduBbp1LcYc0HJ1PfjiW0gT9mPJf3G18DYV8ESfjWgnIfSWHVB9JisIGR5x9WVJr-VZCh9kswtMqO9TaUUkmbsmg9Ujftksk9MLFX18y91m4d0QRv9Iaxoa20YR9YDkKDUqr6MByqfMsqPE28ofFikuu7sDmPsKuZESKUhxQW9ugmoHos7TYpEv8dnn8hp3zAOWq2TcVmvImGvkSp1uCrxOU_QjYMp7r1RwNgSQAHKDksgG_HwZQN3WF7am2MG54nAkq_P3_K4FnaibOoGyI7-1z_aIu5uC-9FS7cUeNsd4U9y-j4_chRhKsXdov0KD5_7dT73iNN8_GdoorQFIs_RNLfVhMS9Q_A6jxXp5d9H9Fz8gDyZwynVr9jyelbXxZ1SNxBIvtjftRloA5tYuVl4QynXn4haktjLEg4DCwY8P-j_JZ_bKyUVedomAxwAAEMX9U6BfTYpyEQmJtdI-JcjtYjOxZlAdSH759gCx3C3KziWsg_R6LabV4T]--></g></svg>