<svg xmlns="http://www.w3.org/2000/svg" xmlns:xlink="http://www.w3.org/1999/xlink" contentStyleType="text/css" data-diagram-type="CLASS" height="473px" preserveAspectRatio="none" style="width:507px;height:473px;background:#FFFFFF;" version="1.1" viewBox="0 0 507 473" width="507px" zoomAndPan="magnify"><defs/><g><!--class RedeDeAgua--><g class="entity" data-entity="RedeDeAgua" data-source-line="1" data-uid="ent0002" id="entity_RedeDeAgua"><rect fill="#F1F1F1" height="145.7813" rx="2.5" ry="2.5" style="stroke:#181818;stroke-width:0.5;" width="197.0215" x="16.7" y="7"/><ellipse cx="65.3855" cy="23" fill="#ADD1B2" rx="11" ry="11" style="stroke:#181818;stroke-width:1;"/><path d="M68.3543,28.6406 Q67.7762,28.9375 67.1355,29.0781 Q66.4949,29.2344 65.7918,29.2344 Q63.2918,29.2344 61.9637,27.5938 Q60.6512,25.9375 60.6512,22.8125 Q60.6512,19.6875 61.9637,18.0313 Q63.2918,16.375 65.7918,16.375 Q66.4949,16.375 67.1355,16.5313 Q67.7918,16.6875 68.3543,16.9844 L68.3543,19.7031 Q67.7293,19.125 67.1355,18.8594 Q66.5418,18.5781 65.9168,18.5781 Q64.573,18.5781 63.8855,19.6563 Q63.198,20.7188 63.198,22.8125 Q63.198,24.9063 63.8855,25.9844 Q64.573,27.0469 65.9168,27.0469 Q66.5418,27.0469 67.1355,26.7813 Q67.7293,26.5 68.3543,25.9219 L68.3543,28.6406 Z " fill="#000000"/><text fill="#000000" font-family="sans-serif" font-size="14" lengthAdjust="spacing" textLength="91.1504" x="85.8855" y="27.8467">RedeDeAgua</text><line style="stroke:#181818;stroke-width:0.5;" x1="17.7" x2="212.7215" y1="39" y2="39"/><rect fill="none" height="6" style="stroke:#C82930;stroke-width:1;" width="6" x="24.7" y="49.6484"/><text fill="#000000" font-family="sans-serif" font-size="14" lengthAdjust="spacing" textLength="115.3291" x="36.7" y="55.9951">vertices: list[No]</text><rect fill="none" height="6" style="stroke:#C82930;stroke-width:1;" width="6" x="24.7" y="65.9453"/><text fill="#000000" font-family="sans-serif" font-size="14" lengthAdjust="spacing" textLength="127.1348" x="36.7" y="72.292">arestas: list[Tubo]</text><line style="stroke:#181818;stroke-width:0.5;" x1="17.7" x2="212.7215" y1="79.5938" y2="79.5938"/><ellipse cx="27.7" cy="93.2422" fill="#84BE84" rx="3" ry="3" style="stroke:#038048;stroke-width:1;"/><text fill="#000000" font-family="sans-serif" font-size="14" lengthAdjust="spacing" textLength="119.7588" x="36.7" y="96.5889">carregar_dados()</text><ellipse cx="27.7" cy="109.5391" fill="#84BE84" rx="3" ry="3" style="stroke:#038048;stroke-width:1;"/><text fill="#000000" font-family="sans-serif" font-size="14" lengthAdjust="spacing" textLength="157.1855" x="36.7" y="112.8857">filtrar_tubos_inativos()</text><ellipse cx="27.7" cy="125.8359" fill="#84BE84" rx="3" ry="3" style="stroke:#038048;stroke-width:1;"/><text fill="#000000" font-family="sans-serif" font-size="14" lengthAdjust="spacing" textLength="171.0215" x="36.7" y="129.1826">calcular_fluxo_maximo()</text><ellipse cx="27.7" cy="142.1328" fill="#84BE84" rx="3" ry="3" style="stroke:#038048;stroke-width:1;"/><text fill="#000000" font-family="sans-serif" font-size="14" lengthAdjust="spacing" textLength="111.9863" x="36.7" y="145.4795">simular_falhas()</text></g><!--class No--><g class="entity" data-entity="No" data-source-line="10" data-uid="ent0003" id="entity_No"><rect fill="#F1F1F1" height="80.5938" rx="2.5" ry="2.5" style="stroke:#181818;stroke-width:0.5;" width="80.5371" x="11.94" y="385.97"/><ellipse cx="40.2146" cy="401.97" fill="#ADD1B2" rx="11" ry="11" style="stroke:#181818;stroke-width:1;"/><path d="M43.1833,407.6106 Q42.6052,407.9075 41.9646,408.0481 Q41.3239,408.2044 40.6208,408.2044 Q38.1208,408.2044 36.7927,406.5637 Q35.4802,404.9075 35.4802,401.7825 Q35.4802,398.6575 36.7927,397.0012 Q38.1208,395.345 40.6208,395.345 Q41.3239,395.345 41.9646,395.5012 Q42.6208,395.6575 43.1833,395.9544 L43.1833,398.6731 Q42.5583,398.095 41.9646,397.8294 Q41.3708,397.5481 40.7458,397.5481 Q39.4021,397.5481 38.7146,398.6262 Q38.0271,399.6887 38.0271,401.7825 Q38.0271,403.8762 38.7146,404.9544 Q39.4021,406.0169 40.7458,406.0169 Q41.3708,406.0169 41.9646,405.7512 Q42.5583,405.47 43.1833,404.8919 L43.1833,407.6106 Z " fill="#000000"/><text fill="#000000" font-family="sans-serif" font-size="14" lengthAdjust="spacing" textLength="19.0381" x="57.1645" y="406.8167">No</text><line style="stroke:#181818;stroke-width:0.5;" x1="12.94" x2="91.4771" y1="417.97" y2="417.97"/><ellipse cx="22.94" cy="431.6184" fill="none" rx="3" ry="3" style="stroke:#038048;stroke-width:1;"/><text fill="#000000" font-family="sans-serif" font-size="14" lengthAdjust="spacing" textLength="40.4824" x="31.94" y="434.9651">id: str</text><ellipse cx="22.94" cy="447.9153" fill="none" rx="3" ry="3" style="stroke:#038048;stroke-width:1;"/><text fill="#000000" font-family="sans-serif" font-size="14" lengthAdjust="spacing" textLength="54.5371" x="31.94" y="451.262">tipo: str</text><line style="stroke:#181818;stroke-width:0.5;" x1="12.94" x2="91.4771" y1="458.5637" y2="458.5637"/></g><!--class Tubo--><g class="entity" data-entity="Tubo" data-source-line="15" data-uid="ent0004" id="entity_Tubo"><rect fill="#F1F1F1" height="113.1875" rx="2.5" ry="2.5" style="stroke:#181818;stroke-width:0.5;" width="146.9141" x="41.75" y="212.78"/><ellipse cx="93.5186" cy="228.78" fill="#ADD1B2" rx="11" ry="11" style="stroke:#181818;stroke-width:1;"/><path d="M96.4873,234.4206 Q95.9092,234.7175 95.2686,234.8581 Q94.6279,235.0144 93.9248,235.0144 Q91.4248,235.0144 90.0967,233.3738 Q88.7842,231.7175 88.7842,228.5925 Q88.7842,225.4675 90.0967,223.8113 Q91.4248,222.155 93.9248,222.155 Q94.6279,222.155 95.2686,222.3113 Q95.9248,222.4675 96.4873,222.7644 L96.4873,225.4831 Q95.8623,224.905 95.2686,224.6394 Q94.6748,224.3581 94.0498,224.3581 Q92.7061,224.3581 92.0186,225.4363 Q91.3311,226.4988 91.3311,228.5925 Q91.3311,230.6863 92.0186,231.7644 Q92.7061,232.8269 94.0498,232.8269 Q94.6748,232.8269 95.2686,232.5613 Q95.8623,232.28 96.4873,231.7019 L96.4873,234.4206 Z " fill="#000000"/><text fill="#000000" font-family="sans-serif" font-size="14" lengthAdjust="spacing" textLength="34.877" x="114.0186" y="233.6267">Tubo</text><line style="stroke:#181818;stroke-width:0.5;" x1="42.75" x2="187.6641" y1="244.78" y2="244.78"/><ellipse cx="52.75" cy="258.4284" fill="none" rx="3" ry="3" style="stroke:#038048;stroke-width:1;"/><text fill="#000000" font-family="sans-serif" font-size="14" lengthAdjust="spacing" textLength="77.5537" x="61.75" y="261.7751">origem: No</text><ellipse cx="52.75" cy="274.7253" fill="none" rx="3" ry="3" style="stroke:#038048;stroke-width:1;"/><text fill="#000000" font-family="sans-serif" font-size="14" lengthAdjust="spacing" textLength="79.8164" x="61.75" y="278.072">destino: No</text><ellipse cx="52.75" cy="291.0222" fill="none" rx="3" ry="3" style="stroke:#038048;stroke-width:1;"/><text fill="#000000" font-family="sans-serif" font-size="14" lengthAdjust="spacing" textLength="120.9141" x="61.75" y="294.3689">capacidade: float</text><ellipse cx="52.75" cy="307.3191" fill="none" rx="3" ry="3" style="stroke:#038048;stroke-width:1;"/><text fill="#000000" font-family="sans-serif" font-size="14" lengthAdjust="spacing" textLength="92.374" x="61.75" y="310.6657">status: string</text><line style="stroke:#181818;stroke-width:0.5;" x1="42.75" x2="187.6641" y1="317.9675" y2="317.9675"/></g><!--class AlgoritmoFluxo--><g class="entity" data-entity="AlgoritmoFluxo" data-source-line="22" data-uid="ent0005" id="entity_AlgoritmoFluxo"><rect fill="#F1F1F1" height="64.2969" rx="2.5" ry="2.5" style="stroke:#181818;stroke-width:0.5;" width="276.4824" x="223.97" y="237.22"/><ellipse cx="304.9998" cy="253.22" fill="#ADD1B2" rx="11" ry="11" style="stroke:#181818;stroke-width:1;"/><path d="M307.9685,258.8606 Q307.3904,259.1575 306.7498,259.2981 Q306.1092,259.4544 305.406,259.4544 Q302.906,259.4544 301.5779,257.8138 Q300.2654,256.1575 300.2654,253.0325 Q300.2654,249.9075 301.5779,248.2513 Q302.906,246.595 305.406,246.595 Q306.1092,246.595 306.7498,246.7513 Q307.406,246.9075 307.9685,247.2044 L307.9685,249.9231 Q307.3435,249.345 306.7498,249.0794 Q306.156,248.7981 305.531,248.7981 Q304.1873,248.7981 303.4998,249.8763 Q302.8123,250.9388 302.8123,253.0325 Q302.8123,255.1263 303.4998,256.2044 Q304.1873,257.2669 305.531,257.2669 Q306.156,257.2669 306.7498,257.0013 Q307.3435,256.72 307.9685,256.1419 L307.9685,258.8606 Z " fill="#000000"/><text fill="#000000" font-family="sans-serif" font-size="14" lengthAdjust="spacing" textLength="105.9229" x="325.4998" y="258.0667">AlgoritmoFluxo</text><line style="stroke:#181818;stroke-width:0.5;" x1="224.97" x2="499.4524" y1="269.22" y2="269.22"/><line style="stroke:#181818;stroke-width:0.5;" x1="224.97" x2="499.4524" y1="277.22" y2="277.22"/><ellipse cx="234.97" cy="290.8684" fill="#84BE84" rx="3" ry="3" style="stroke:#038048;stroke-width:1;"/><text fill="#000000" font-family="sans-serif" font-size="14" lengthAdjust="spacing" textLength="250.4824" x="243.97" y="294.2151">executar(grafo: RedeDeAgua): float</text></g><!--reverse link RedeDeAgua to No--><g class="link" data-entity-1="RedeDeAgua" data-entity-2="No" data-source-line="26" data-uid="lnk6" id="link_RedeDeAgua_No"><path codeLine="26" d="M47.3449,163.0954 C35.1149,181.4454 30.7,191.93 24.21,212.78 C6,271.22 22.76,342.29 37.06,385.63" fill="none" id="RedeDeAgua-backto-No" style="stroke:#181818;stroke-width:1;"/><polygon fill="none" points="54,153.11,47.3439,155.8843,47.3449,163.0954,54.0009,160.3211,54,153.11" style="stroke:#181818;stroke-width:1;"/><text fill="#000000" font-family="sans-serif" font-size="13" lengthAdjust="spacing" textLength="8.271" x="39.7975" y="172.8768">1</text><text fill="#000000" font-family="sans-serif" font-size="13" lengthAdjust="spacing" textLength="6.5" x="28.2074" y="375.0357">*</text></g><!--reverse link RedeDeAgua to Tubo--><g class="link" data-entity-1="RedeDeAgua" data-entity-2="Tubo" data-source-line="27" data-uid="lnk7" id="link_RedeDeAgua_Tubo"><path codeLine="27" d="M115.21,165.11 C115.21,184.81 115.21,193.85 115.21,212.49" fill="none" id="RedeDeAgua-backto-Tubo" style="stroke:#181818;stroke-width:1;"/><polygon fill="none" points="115.21,153.11,111.21,159.11,115.21,165.11,119.21,159.11,115.21,153.11" style="stroke:#181818;stroke-width:1;"/><text fill="#000000" font-family="sans-serif" font-size="13" lengthAdjust="spacing" textLength="8.271" x="106.8416" y="172.8768">1</text><text fill="#000000" font-family="sans-serif" font-size="13" lengthAdjust="spacing" textLength="6.5" x="108.8752" y="201.7182">*</text></g><!--link RedeDeAgua to AlgoritmoFluxo--><g class="link" data-entity-1="RedeDeAgua" data-entity-2="AlgoritmoFluxo" data-source-line="28" data-uid="lnk8" id="link_RedeDeAgua_AlgoritmoFluxo"><path codeLine="28" d="M210.35,153.11 C248.54,182.09 285.771,210.3522 315.911,233.2322" fill="none" id="RedeDeAgua-to-AlgoritmoFluxo" style="stroke:#181818;stroke-width:1;"/><polygon fill="#181818" points="320.69,236.86,315.9401,228.2322,316.7075,233.8368,311.103,234.6042,320.69,236.86" style="stroke:#181818;stroke-width:1;"/></g><!--link Tubo to No--><g class="link" data-entity-1="Tubo" data-entity-2="No" data-source-line="30" data-uid="lnk9" id="link_Tubo_No"><path codeLine="30" d="M92.46,326.29 C84.43,346.05 75.57,367.84 68.21,385.93" fill="none" id="Tubo-No" style="stroke:#181818;stroke-width:1;"/></g><!--SRC=[TL2nQiD03Dtz5S9Jqk0XguT2e7JqKBgLOjIpV1MShN2d2uRGV-_vx3YXq4rwx-dfISPX2F167RtGoKQ4Qm5GmOMyig5GW-EW7uryPXWz1SKR-Xw_Cdu0WzwJHTzss4dOxJFOirEVC4soqFA8ofUDDEXCT8djNPoa7N3YGLOkyB1GwBvn7lWf2fDpDfBp7O2x6eBwN2kVPUastPniLOfdIqETHdFRfGDubAqtU4R3AJRLq3j1NH8eQWpPb4Txzpqvc_nqaDSvzRg19Z9HqU-inpuvtv-vltacWuSNbySIfAgWV2hd6FymymsFN5Kz_zbV5FdEf6_a5m00]--></g></svg>