<svg xmlns="http://www.w3.org/2000/svg" xmlns:xlink="http://www.w3.org/1999/xlink" contentStyleType="text/css" data-diagram-type="CLASS" height="855px" preserveAspectRatio="none" style="width:530px;height:855px;background:#FFFFFF;" version="1.1" viewBox="0 0 530 855" width="530px" zoomAndPan="magnify"><defs/><g><!--class RedeDeAgua--><g class="entity" data-entity="RedeDeAgua" data-source-line="2" data-uid="ent0002" id="entity_RedeDeAgua"><rect fill="#F1F1F1" height="129.4844" rx="2.5" ry="2.5" style="stroke:#181818;stroke-width:0.5;" width="183.1855" x="8.9" y="7"/><ellipse cx="50.9158" cy="23" fill="#ADD1B2" rx="11" ry="11" style="stroke:#181818;stroke-width:1;"/><path d="M53.8846,28.6406 Q53.3064,28.9375 52.6658,29.0781 Q52.0252,29.2344 51.3221,29.2344 Q48.8221,29.2344 47.4939,27.5938 Q46.1814,25.9375 46.1814,22.8125 Q46.1814,19.6875 47.4939,18.0313 Q48.8221,16.375 51.3221,16.375 Q52.0252,16.375 52.6658,16.5313 Q53.3221,16.6875 53.8846,16.9844 L53.8846,19.7031 Q53.2596,19.125 52.6658,18.8594 Q52.0721,18.5781 51.4471,18.5781 Q50.1033,18.5781 49.4158,19.6563 Q48.7283,20.7188 48.7283,22.8125 Q48.7283,24.9063 49.4158,25.9844 Q50.1033,27.0469 51.4471,27.0469 Q52.0721,27.0469 52.6658,26.7813 Q53.2596,26.5 53.8846,25.9219 L53.8846,28.6406 Z " fill="#000000"/><text fill="#000000" font-family="sans-serif" font-size="14" lengthAdjust="spacing" textLength="91.1504" x="70.9193" y="27.8467">RedeDeAgua</text><line style="stroke:#181818;stroke-width:0.5;" x1="9.9" x2="191.0855" y1="39" y2="39"/><rect fill="none" height="6" style="stroke:#C82930;stroke-width:1;" width="6" x="16.9" y="49.6484"/><text fill="#000000" font-family="sans-serif" font-size="14" lengthAdjust="spacing" textLength="136.2266" x="28.9" y="55.9951">vertices : List&lt;No&gt;</text><rect fill="none" height="6" style="stroke:#C82930;stroke-width:1;" width="6" x="16.9" y="65.9453"/><text fill="#000000" font-family="sans-serif" font-size="14" lengthAdjust="spacing" textLength="152.4824" x="28.9" y="72.292">arestas  : List&lt;Tubo&gt;</text><line style="stroke:#181818;stroke-width:0.5;" x1="9.9" x2="191.0855" y1="79.5938" y2="79.5938"/><ellipse cx="19.9" cy="93.2422" fill="#84BE84" rx="3" ry="3" style="stroke:#038048;stroke-width:1;"/><text fill="#000000" font-family="sans-serif" font-size="14" lengthAdjust="spacing" textLength="119.7588" x="28.9" y="96.5889">carregar_dados()</text><ellipse cx="19.9" cy="109.5391" fill="#84BE84" rx="3" ry="3" style="stroke:#038048;stroke-width:1;"/><text fill="#000000" font-family="sans-serif" font-size="14" lengthAdjust="spacing" textLength="157.1855" x="28.9" y="112.8857">filtrar_tubos_inativos()</text><ellipse cx="19.9" cy="125.8359" fill="#84BE84" rx="3" ry="3" style="stroke:#038048;stroke-width:1;"/><text fill="#000000" font-family="sans-serif" font-size="14" lengthAdjust="spacing" textLength="116.833" x="28.9" y="129.1826">construir_grafo()</text></g><!--class No--><g class="entity" data-entity="No" data-source-line="10" data-uid="ent0003" id="entity_No"><rect fill="#F1F1F1" height="80.5938" rx="2.5" ry="2.5" style="stroke:#181818;stroke-width:0.5;" width="84.9873" x="7" y="768.35"/><ellipse cx="37.2771" cy="784.35" fill="#ADD1B2" rx="11" ry="11" style="stroke:#181818;stroke-width:1;"/><path d="M40.2459,789.9906 Q39.6678,790.2875 39.0271,790.4281 Q38.3865,790.5844 37.6834,790.5844 Q35.1834,790.5844 33.8553,788.9438 Q32.5428,787.2875 32.5428,784.1625 Q32.5428,781.0375 33.8553,779.3813 Q35.1834,777.725 37.6834,777.725 Q38.3865,777.725 39.0271,777.8813 Q39.6834,778.0375 40.2459,778.3344 L40.2459,781.0531 Q39.6209,780.475 39.0271,780.2094 Q38.4334,779.9281 37.8084,779.9281 Q36.4646,779.9281 35.7771,781.0063 Q35.0896,782.0688 35.0896,784.1625 Q35.0896,786.2563 35.7771,787.3344 Q36.4646,788.3969 37.8084,788.3969 Q38.4334,788.3969 39.0271,788.1313 Q39.6209,787.85 40.2459,787.2719 L40.2459,789.9906 Z " fill="#000000"/><text fill="#000000" font-family="sans-serif" font-size="14" lengthAdjust="spacing" textLength="19.0381" x="54.6721" y="789.1967">No</text><line style="stroke:#181818;stroke-width:0.5;" x1="8" x2="90.9873" y1="800.35" y2="800.35"/><ellipse cx="18" cy="813.9984" fill="none" rx="3" ry="3" style="stroke:#038048;stroke-width:1;"/><text fill="#000000" font-family="sans-serif" font-size="14" lengthAdjust="spacing" textLength="53.833" x="27" y="817.3451">id   : str</text><ellipse cx="18" cy="830.2953" fill="none" rx="3" ry="3" style="stroke:#038048;stroke-width:1;"/><text fill="#000000" font-family="sans-serif" font-size="14" lengthAdjust="spacing" textLength="58.9873" x="27" y="833.642">tipo : str</text><line style="stroke:#181818;stroke-width:0.5;" x1="8" x2="90.9873" y1="840.9438" y2="840.9438"/></g><!--class Tubo--><g class="entity" data-entity="Tubo" data-source-line="15" data-uid="ent0004" id="entity_Tubo"><rect fill="#F1F1F1" height="129.4844" rx="2.5" ry="2.5" style="stroke:#181818;stroke-width:0.5;" width="151.3643" x="82.81" y="577.86"/><ellipse cx="136.8037" cy="593.86" fill="#ADD1B2" rx="11" ry="11" style="stroke:#181818;stroke-width:1;"/><path d="M139.7724,599.5006 Q139.1943,599.7975 138.5537,599.9381 Q137.913,600.0944 137.2099,600.0944 Q134.7099,600.0944 133.3818,598.4538 Q132.0693,596.7975 132.0693,593.6725 Q132.0693,590.5475 133.3818,588.8913 Q134.7099,587.235 137.2099,587.235 Q137.913,587.235 138.5537,587.3913 Q139.2099,587.5475 139.7724,587.8444 L139.7724,590.5631 Q139.1474,589.985 138.5537,589.7194 Q137.9599,589.4381 137.3349,589.4381 Q135.9912,589.4381 135.3037,590.5163 Q134.6162,591.5788 134.6162,593.6725 Q134.6162,595.7663 135.3037,596.8444 Q135.9912,597.9069 137.3349,597.9069 Q137.9599,597.9069 138.5537,597.6413 Q139.1474,597.36 139.7724,596.7819 L139.7724,599.5006 Z " fill="#000000"/><text fill="#000000" font-family="sans-serif" font-size="14" lengthAdjust="spacing" textLength="34.877" x="157.3037" y="598.7067">Tubo</text><line style="stroke:#181818;stroke-width:0.5;" x1="83.81" x2="233.1743" y1="609.86" y2="609.86"/><ellipse cx="93.81" cy="623.5084" fill="none" rx="3" ry="3" style="stroke:#038048;stroke-width:1;"/><text fill="#000000" font-family="sans-serif" font-size="14" lengthAdjust="spacing" textLength="99.8047" x="102.81" y="626.8551">origem     : No</text><ellipse cx="93.81" cy="639.8053" fill="none" rx="3" ry="3" style="stroke:#038048;stroke-width:1;"/><text fill="#000000" font-family="sans-serif" font-size="14" lengthAdjust="spacing" textLength="97.6172" x="102.81" y="643.152">destino    : No</text><ellipse cx="93.81" cy="656.1022" fill="none" rx="3" ry="3" style="stroke:#038048;stroke-width:1;"/><text fill="#000000" font-family="sans-serif" font-size="14" lengthAdjust="spacing" textLength="125.3643" x="102.81" y="659.4489">capacidade : float</text><ellipse cx="93.81" cy="672.3991" fill="none" rx="3" ry="3" style="stroke:#038048;stroke-width:1;"/><text fill="#000000" font-family="sans-serif" font-size="14" lengthAdjust="spacing" textLength="101.8623" x="102.81" y="675.7457">fluxo      : float</text><ellipse cx="93.81" cy="688.6959" fill="none" rx="3" ry="3" style="stroke:#038048;stroke-width:1;"/><text fill="#000000" font-family="sans-serif" font-size="14" lengthAdjust="spacing" textLength="114.625" x="102.81" y="692.0426">status     : string</text><line style="stroke:#181818;stroke-width:0.5;" x1="83.81" x2="233.1743" y1="699.3444" y2="699.3444"/></g><!--class AlgoritmoFluxoMaximo--><g class="entity" data-entity="AlgoritmoFluxoMaximo" data-source-line="23" data-uid="ent0005" id="entity_AlgoritmoFluxoMaximo"><rect fill="#F1F1F1" height="129.4844" rx="2.5" ry="2.5" style="stroke:#181818;stroke-width:0.5;" width="355.7451" x="156.62" y="213.49"/><ellipse cx="249.7631" cy="229.49" fill="#ADD1B2" rx="11" ry="11" style="stroke:#181818;stroke-width:1;"/><path d="M252.7318,235.1306 Q252.1537,235.4275 251.5131,235.5681 Q250.8724,235.7244 250.1693,235.7244 Q247.6693,235.7244 246.3412,234.0838 Q245.0287,232.4275 245.0287,229.3025 Q245.0287,226.1775 246.3412,224.5213 Q247.6693,222.865 250.1693,222.865 Q250.8724,222.865 251.5131,223.0213 Q252.1693,223.1775 252.7318,223.4744 L252.7318,226.1931 Q252.1068,225.615 251.5131,225.3494 Q250.9193,225.0681 250.2943,225.0681 Q248.9506,225.0681 248.2631,226.1463 Q247.5756,227.2088 247.5756,229.3025 Q247.5756,231.3963 248.2631,232.4744 Q248.9506,233.5369 250.2943,233.5369 Q250.9193,233.5369 251.5131,233.2713 Q252.1068,232.99 252.7318,232.4119 L252.7318,235.1306 Z " fill="#000000"/><text fill="#000000" font-family="sans-serif" font-size="14" lengthAdjust="spacing" textLength="160.959" x="270.2631" y="234.3367">AlgoritmoFluxoMaximo</text><line style="stroke:#181818;stroke-width:0.5;" x1="157.62" x2="511.3651" y1="245.49" y2="245.49"/><line style="stroke:#181818;stroke-width:0.5;" x1="157.62" x2="511.3651" y1="253.49" y2="253.49"/><ellipse cx="167.62" cy="267.1384" fill="#84BE84" rx="3" ry="3" style="stroke:#038048;stroke-width:1;"/><text fill="#000000" font-family="sans-serif" font-size="14" lengthAdjust="spacing" textLength="329.7451" x="176.62" y="270.4851">calcular_fluxo_maximo(g : RedeDeAgua) : float</text><rect fill="#F24D5C" height="6" style="stroke:#C82930;stroke-width:1;" width="6" x="164.62" y="280.4353"/><text fill="#000000" font-family="sans-serif" font-size="14" lengthAdjust="spacing" textLength="174.7676" x="176.62" y="286.782">construir_rede_residual()</text><rect fill="#F24D5C" height="6" style="stroke:#C82930;stroke-width:1;" width="6" x="164.62" y="296.7322"/><text fill="#000000" font-family="sans-serif" font-size="14" lengthAdjust="spacing" textLength="238.8613" x="176.62" y="303.0789">encontrar_caminho_aumentante()</text><rect fill="#F24D5C" height="6" style="stroke:#C82930;stroke-width:1;" width="6" x="164.62" y="313.0291"/><text fill="#000000" font-family="sans-serif" font-size="14" lengthAdjust="spacing" textLength="120.7432" x="176.62" y="319.3757">atualizar_fluxos()</text><rect fill="#F24D5C" height="6" style="stroke:#C82930;stroke-width:1;" width="6" x="164.62" y="329.3259"/><text fill="#000000" font-family="sans-serif" font-size="14" lengthAdjust="spacing" textLength="192.6367" x="176.62" y="335.6726">caminho_disponivel() : bool</text></g><!--class RedeResidual--><g class="entity" data-entity="RedeResidual" data-source-line="31" data-uid="ent0006" id="entity_RedeResidual"><rect fill="#F1F1F1" height="96.8906" rx="2.5" ry="2.5" style="stroke:#181818;stroke-width:0.5;" width="369.3691" x="153.81" y="419.97"/><ellipse cx="286.4477" cy="435.97" fill="#ADD1B2" rx="11" ry="11" style="stroke:#181818;stroke-width:1;"/><path d="M289.4164,441.6106 Q288.8383,441.9075 288.1977,442.0481 Q287.5571,442.2044 286.8539,442.2044 Q284.3539,442.2044 283.0258,440.5638 Q281.7133,438.9075 281.7133,435.7825 Q281.7133,432.6575 283.0258,431.0013 Q284.3539,429.345 286.8539,429.345 Q287.5571,429.345 288.1977,429.5013 Q288.8539,429.6575 289.4164,429.9544 L289.4164,432.6731 Q288.7914,432.095 288.1977,431.8294 Q287.6039,431.5481 286.9789,431.5481 Q285.6352,431.5481 284.9477,432.6263 Q284.2602,433.6888 284.2602,435.7825 Q284.2602,437.8763 284.9477,438.9544 Q285.6352,440.0169 286.9789,440.0169 Q287.6039,440.0169 288.1977,439.7513 Q288.7914,439.47 289.4164,438.8919 L289.4164,441.6106 Z " fill="#000000"/><text fill="#000000" font-family="sans-serif" font-size="14" lengthAdjust="spacing" textLength="95.5938" x="306.9477" y="440.8167">RedeResidual</text><line style="stroke:#181818;stroke-width:0.5;" x1="154.81" x2="522.1791" y1="451.97" y2="451.97"/><rect fill="none" height="6" style="stroke:#C82930;stroke-width:1;" width="6" x="161.81" y="462.6184"/><text fill="#000000" font-family="sans-serif" font-size="14" lengthAdjust="spacing" textLength="218.1074" x="173.81" y="468.9651">arestas_residuais : List&lt;Tubo&gt;</text><line style="stroke:#181818;stroke-width:0.5;" x1="154.81" x2="522.1791" y1="476.2669" y2="476.2669"/><ellipse cx="164.81" cy="489.9153" fill="#84BE84" rx="3" ry="3" style="stroke:#038048;stroke-width:1;"/><text fill="#000000" font-family="sans-serif" font-size="14" lengthAdjust="spacing" textLength="223.1045" x="173.81" y="493.262">gerar_a_partir(g : RedeDeAgua)</text><ellipse cx="164.81" cy="506.2122" fill="#84BE84" rx="3" ry="3" style="stroke:#038048;stroke-width:1;"/><text fill="#000000" font-family="sans-serif" font-size="14" lengthAdjust="spacing" textLength="343.3691" x="173.81" y="509.5589">obter_caminho(orig : No, dest : No) : List&lt;Tubo&gt;</text></g><!--reverse link RedeDeAgua to No--><g class="link" data-entity-1="RedeDeAgua" data-entity-2="No" data-source-line="39" data-uid="lnk7" id="link_RedeDeAgua_No"><path codeLine="39" d="M61.0208,147.5345 C42.9308,186.9145 29.49,228.19 29.49,277.23 C29.49,277.23 29.49,277.23 29.49,643.6 C29.49,686.35 36.27,734.91 41.93,768.03" fill="none" id="RedeDeAgua-backto-No" style="stroke:#181818;stroke-width:1;"/><polygon fill="none" points="66.03,136.63,59.8906,140.4125,61.0208,147.5345,67.1602,143.752,66.03,136.63" style="stroke:#181818;stroke-width:1;"/><text fill="#000000" font-family="sans-serif" font-size="13" lengthAdjust="spacing" textLength="8.271" x="53.838" y="156.6216">1</text><text fill="#000000" font-family="sans-serif" font-size="13" lengthAdjust="spacing" textLength="6.5" x="34.2218" y="757.1385">*</text></g><!--reverse link RedeDeAgua to Tubo--><g class="link" data-entity-1="RedeDeAgua" data-entity-2="Tubo" data-source-line="40" data-uid="lnk8" id="link_RedeDeAgua_Tubo"><path codeLine="40" d="M104.4785,148.9108 C109.3785,235.4308 119.2,382.21 136.49,516.86 C139.04,536.71 142.56,558.21 146.03,577.68" fill="none" id="RedeDeAgua-backto-Tubo" style="stroke:#181818;stroke-width:1;"/><polygon fill="none" points="103.8,136.93,100.1457,143.1466,104.4785,148.9108,108.1329,142.6942,103.8,136.93" style="stroke:#181818;stroke-width:1;"/><text fill="#000000" font-family="sans-serif" font-size="13" lengthAdjust="spacing" textLength="8.271" x="95.7425" y="156.4997">1</text><text fill="#000000" font-family="sans-serif" font-size="13" lengthAdjust="spacing" textLength="6.5" x="138.3662" y="566.833">*</text></g><!--link Tubo to No--><g class="link" data-entity-1="Tubo" data-entity-2="No" data-source-line="43" data-uid="lnk9" id="link_Tubo_No"><path codeLine="43" d="M116.04,707.5 C102.41,728.01 94.3612,740.1153 82.2612,758.3253" fill="none" id="Tubo-to-No" style="stroke:#181818;stroke-width:1;"/><polygon fill="#181818" points="75.62,768.32,82.2722,765.5364,82.2612,758.3253,75.609,761.1089,75.62,768.32" style="stroke:#181818;stroke-width:1;"/><text fill="#000000" font-family="sans-serif" font-size="13" lengthAdjust="spacing" textLength="8.271" x="102.9741" y="727.4927">1</text><text fill="#000000" font-family="sans-serif" font-size="13" lengthAdjust="spacing" textLength="8.271" x="71.4463" y="757.1781">2</text></g><!--link RedeDeAgua to AlgoritmoFluxoMaximo--><g class="link" data-entity-1="RedeDeAgua" data-entity-2="AlgoritmoFluxoMaximo" data-source-line="46" data-uid="lnk10" id="link_RedeDeAgua_AlgoritmoFluxoMaximo"><path codeLine="46" d="M173.89,136.88 C201.77,161.25 228.9815,185.0324 256.8415,209.3724" fill="none" id="RedeDeAgua-to-AlgoritmoFluxoMaximo" style="stroke:#181818;stroke-width:1;stroke-dasharray:7.0,7.0;"/><polygon fill="#181818" points="261.36,213.32,257.214,204.3863,257.5946,210.0303,251.9506,210.4109,261.36,213.32" style="stroke:#181818;stroke-width:1;"/><text fill="#000000" font-family="sans-serif" font-size="13" lengthAdjust="spacing" textLength="22.9785" x="226.49" y="179.5569">usa</text></g><!--reverse link AlgoritmoFluxoMaximo to RedeResidual--><g class="link" data-entity-1="AlgoritmoFluxoMaximo" data-entity-2="RedeResidual" data-source-line="49" data-uid="lnk11" id="link_AlgoritmoFluxoMaximo_RedeResidual"><path codeLine="49" d="M336.1153,355.4673 C336.6453,380.3773 336.98,396.41 337.48,419.51" fill="none" id="AlgoritmoFluxoMaximo-backto-RedeResidual" style="stroke:#181818;stroke-width:1;"/><polygon fill="#181818" points="335.86,343.47,331.9885,349.5537,336.1153,355.4673,339.9867,349.3836,335.86,343.47" style="stroke:#181818;stroke-width:1;"/><text fill="#000000" font-family="sans-serif" font-size="13" lengthAdjust="spacing" textLength="52.1206" x="337.49" y="386.0369">constr&#243;i</text><text fill="#000000" font-family="sans-serif" font-size="13" lengthAdjust="spacing" textLength="8.271" x="328.8244" y="409.0064">1</text></g><!--reverse link RedeResidual to Tubo--><g class="link" data-entity-1="RedeResidual" data-entity-2="Tubo" data-source-line="52" data-uid="lnk12" id="link_RedeResidual_Tubo"><path codeLine="52" d="M280.1606,525.2171 C260.6006,543.9371 246.5,557.42 225.52,577.49" fill="none" id="RedeResidual-backto-Tubo" style="stroke:#181818;stroke-width:1;"/><polygon fill="none" points="288.83,516.92,281.7296,518.1787,280.1606,525.2171,287.261,523.9583,288.83,516.92" style="stroke:#181818;stroke-width:1;"/><text fill="#000000" font-family="sans-serif" font-size="13" lengthAdjust="spacing" textLength="8.271" x="273.3025" y="536.8719">1</text><text fill="#000000" font-family="sans-serif" font-size="13" lengthAdjust="spacing" textLength="6.5" x="226.5504" y="566.6222">*</text></g><!--SRC=[TL91Rjim4Bph5GjVR2TLWFPej044rmKCE4fWvowiILfb8P42IHb1YrxxWFwYlGPzWN_IbtH9KxALk3e8qknmTpWxO_Zm-e7vAjji5XjuM2_p-V8XMsukqH9MeRMm5bny55dP8dnB05BO2-Ca4nPci9BMlS_rRS3H2ElGGeS_jjjGkGQ6neWIJS6HQpkP1d0dAsS8SqIpXLJevBulCgsiCwqqHMbmfmdzdaGzkGuwha5oyBE85twTR7JyxRbUGcHh8qjH0uGpkGuO9y5IwG76i44cIQWWR5TfT4UrLViKY320wSAkjH6cqLALf-bPLT9KL-jF_l0TFicwKyEmOcr5jmzzYphK9YKrETazFPkKdZbYY44lAtcBLV0h1Q6e7knaM4lrMHVOra8vL4v42Wd5IdxjPje8TtmkRQELt0jgIOEtMbUdctXHwpWnfY1kknCYxUkrby8Bmg912envURlZLhPEz9edVaTX4s_2QiBdTDYN98qlPdgzM6NpvNsUtIton_lBWHw7-V3tnq_83yyMH0Y8JSuYFdex0fscCBeQ-KJyf-AFUI4XN-IyO0w1Qp91KTyam9wVfbSmUXSw4RlF0xGM0OzY9bmqGl73RyKaagzMK2lQ91DVa9DBPmfkRculPshc6mudC5qtXpy2sZhEwTSdAH96ONAnqvM_80aVB7mMmtTubaddOL_qkJlygezEGf-6PD3XfNV_0000]--></g></svg>